<svg xmlns="http://www.w3.org/2000/svg" xmlns:xlink="http://www.w3.org/1999/xlink" width="300" height="300" viewBox="4376381.322632001 1183437.8626320004 665.7975359987468 602.2975359978154" preserveAspectRatio="xMinYMin meet"><g transform="matrix(1,0,0,-1,0,2367478.0227999985)"><path fill-rule="evenodd" fill="#66cc99" stroke="#555555" stroke-width="4.438650239991645" opacity="0.6" d="M 4376788.5693,1183508.0300999992 L 4376693.3193,1183492.6843000017 L 4376623.998500001,1183462.5218000002 L 4376489.061000001,1183610.1592999995 L 4376504.406800002,1183709.113499999 L 4376456.781800002,1183843.5218000002 L 4376447.785999998,1183850.4010000005 L 4376421.3277,1183871.0384999998 L 4376405.981800001,1183903.8467999995 L 4376436.144299999,1183885.3260000013 L 4376512.344300002,1183882.1510000005 L 4376550.4443,1183813.3592999987 L 4376588.0152,1183786.9010000005 L 4376652.5735,1183755.6801000014 L 4376773.752700001,1183838.2300999984 L 4376775.3401999995,1183868.3926 L 4376798.094300002,1183949.3550999984 L 4376909.748500001,1183991.6884999983 L 4376922.4485,1184015.5009999983 L 4377022.460999999,1183890.6176000014 L 4376901.281800002,1183853.0467999987 L 4376855.773499999,1183819.1801000014 L 4376832.490200002,1183778.4343000017 L 4376810.2652,1183753.0342999995 L 4376790.686000001,1183664.6634999998 L 4376793.861000001,1183614.9217999987 L 4376806.561000001,1183528.1385000013 L 4376788.5693,1183508.0300999992 z" /></g></svg>